<mxfile host="app.diagrams.net" modified="2024-05-20T15:38:35.059Z" agent="Mozilla/5.0 (Windows NT 10.0; Win64; x64; rv:126.0) Gecko/20100101 Firefox/126.0" version="24.4.0" etag="RFZnMJwR_L7m-hXYooCC" type="github">
  <diagram name="Page-1" id="th2nux7CyLp94090GSXA">
    <mxGraphModel>
      <root>
        <mxCell id="0" />
        <mxCell id="1" parent="0" />
      </root>
    </mxGraphModel>
  </diagram>
</mxfile>
